<?xml version="1.0" encoding="UTF-8"?>
<svg xmlns="http://www.w3.org/2000/svg" xmlns:xlink="http://www.w3.org/1999/xlink" width="24px" height="24px" viewBox="0 0 24 24" version="1.1">
<g id="surface1">
<path style=" stroke:none;fill-rule:nonzero;fill:rgb(93.72549%,76.470588%,46.666667%);fill-opacity:1;" d="M 8.601562 15.398438 L 5.769531 12.566406 C 5.613281 12.726562 5.523438 12.9375 5.523438 13.160156 L 5.523438 17.636719 C 5.523438 17.867188 5.617188 18.078125 5.769531 18.230469 C 5.921875 18.382812 6.132812 18.476562 6.363281 18.476562 L 10.839844 18.476562 C 11.0625 18.476562 11.273438 18.386719 11.433594 18.230469 Z M 8.601562 15.398438 "/>
<path style=" stroke:none;fill-rule:nonzero;fill:rgb(95.686275%,85.098039%,26.666667%);fill-opacity:1;" d="M 18.636719 8.652344 L 14.160156 4.175781 L 5.769531 12.566406 L 11.433594 18.230469 L 19.824219 9.839844 Z M 18.636719 8.652344 "/>
<path style=" stroke:none;fill-rule:nonzero;fill:rgb(86.666667%,32.54902%,61.176471%);fill-opacity:1;" d="M 23.742188 4.734375 L 19.265625 0.257812 C 18.9375 -0.0703125 18.367188 -0.0273438 17.988281 0.347656 L 14.160156 4.175781 L 19.824219 9.839844 L 23.652344 6.011719 C 24.027344 5.632812 24.070312 5.0625 23.742188 4.734375 Z M 23.742188 4.734375 "/>
<path style=" stroke:none;fill-rule:nonzero;fill:rgb(25.882353%,30.588235%,87.058824%);fill-opacity:1;" d="M 22.910156 10.910156 C 22.304688 10.910156 21.816406 11.398438 21.816406 12 L 21.816406 21.816406 L 2.183594 21.816406 L 2.183594 2.183594 L 12 2.183594 C 12.601562 2.183594 13.089844 1.695312 13.089844 1.089844 C 13.089844 0.488281 12.601562 0 12 0 L 1.089844 0 C 0.488281 0 0 0.488281 0 1.089844 L 0 22.910156 C 0 23.511719 0.488281 24 1.089844 24 L 22.910156 24 C 23.511719 24 24 23.511719 24 22.910156 L 24 12 C 24 11.398438 23.511719 10.910156 22.910156 10.910156 Z M 22.910156 10.910156 "/>
<path style=" stroke:none;fill-rule:nonzero;fill:rgb(92.54902%,70.980392%,33.333333%);fill-opacity:1;" d="M 5.769531 18.230469 L 8.601562 15.398438 L 5.769531 12.566406 C 5.613281 12.726562 5.523438 12.9375 5.523438 13.160156 L 5.523438 17.636719 C 5.523438 17.867188 5.617188 18.078125 5.769531 18.230469 Z M 5.769531 18.230469 "/>
<path style=" stroke:none;fill-rule:nonzero;fill:rgb(94.509804%,80%,18.823529%);fill-opacity:1;" d="M 16.992188 7.007812 L 14.160156 4.175781 L 5.769531 12.566406 L 8.601562 15.398438 Z M 16.992188 7.007812 "/>
<path style=" stroke:none;fill-rule:nonzero;fill:rgb(85.882353%,20.392157%,54.117647%);fill-opacity:1;" d="M 18.636719 8.652344 L 19.824219 9.839844 Z M 18.636719 8.652344 "/>
<path style=" stroke:none;fill-rule:nonzero;fill:rgb(85.882353%,20.392157%,54.117647%);fill-opacity:1;" d="M 16.992188 7.007812 L 21.503906 2.496094 L 19.265625 0.257812 C 18.9375 -0.0703125 18.367188 -0.0273438 17.988281 0.347656 L 14.160156 4.175781 Z M 16.992188 7.007812 "/>
</g>
</svg>
